<?xml version="1.0" encoding="UTF-8" standalone="no"?><svg xmlns="http://www.w3.org/2000/svg" xmlns:xlink= "http://www.w3.org/1999/xlink" width="914.4947416552353" height="594.4215820759031" aria-label="A chart." style="overflow: hidden;"><defs id="_ABSTRACT_RENDERER_ID_2122"><clipPath id="_ABSTRACT_RENDERER_ID_2123"><rect x="175" y="114" width="565" height="367"></rect></clipPath><filter id="_ABSTRACT_RENDERER_ID_2124"><feGaussianBlur in="SourceAlpha" stdDeviation="2"></feGaussianBlur><feOffset dx="1" dy="1"></feOffset><feComponentTransfer><feFuncA type="linear" slope="0.1"></feFuncA></feComponentTransfer><feMerge><feMergeNode></feMergeNode><feMergeNode in="SourceGraphic"></feMergeNode></feMerge></filter></defs><rect x="0" y="0" width="914.4947416552353" height="594.4215820759031" stroke="none" stroke-width="0" fill="#ffffff"></rect><g><rect x="754" y="114" width="146.49474165523532" height="60" stroke="none" stroke-width="0" fill-opacity="0" fill="#ffffff"></rect><g><rect x="754" y="114" width="146.49474165523532" height="14" stroke="none" stroke-width="0" fill-opacity="0" fill="#ffffff"></rect><g><text text-anchor="start" x="787" y="125.9" font-family="Arial" font-size="14" stroke="none" stroke-width="0" fill="#222222">1 worker</text></g><rect x="754" y="114" width="28" height="14" stroke="none" stroke-width="0" fill="#3366cc"></rect></g><g><rect x="754" y="137" width="146.49474165523532" height="14" stroke="none" stroke-width="0" fill-opacity="0" fill="#ffffff"></rect><g><text text-anchor="start" x="787" y="148.9" font-family="Arial" font-size="14" stroke="none" stroke-width="0" fill="#222222">2 workers</text></g><rect x="754" y="137" width="28" height="14" stroke="none" stroke-width="0" fill="#dc3912"></rect></g><g><rect x="754" y="160" width="146.49474165523532" height="14" stroke="none" stroke-width="0" fill-opacity="0" fill="#ffffff"></rect><g><text text-anchor="start" x="787" y="171.9" font-family="Arial" font-size="14" stroke="none" stroke-width="0" fill="#222222">4 workers</text></g><rect x="754" y="160" width="28" height="14" stroke="none" stroke-width="0" fill="#ff9900"></rect></g></g><g><rect x="175" y="114" width="565" height="367" stroke="none" stroke-width="0" fill-opacity="0" fill="#ffffff"></rect><g clip-path="url(https://www.rapidtables.com/tools/bar-graph.html#_ABSTRACT_RENDERER_ID_2123)"><g><rect x="175" y="114" width="1" height="367" stroke="none" stroke-width="0" fill="#cccccc"></rect><rect x="363" y="114" width="1" height="367" stroke="none" stroke-width="0" fill="#cccccc"></rect><rect x="551" y="114" width="1" height="367" stroke="none" stroke-width="0" fill="#cccccc"></rect><rect x="739" y="114" width="1" height="367" stroke="none" stroke-width="0" fill="#cccccc"></rect><rect x="269" y="114" width="1" height="367" stroke="none" stroke-width="0" fill="#ebebeb"></rect><rect x="457" y="114" width="1" height="367" stroke="none" stroke-width="0" fill="#ebebeb"></rect><rect x="645" y="114" width="1" height="367" stroke="none" stroke-width="0" fill="#ebebeb"></rect></g><g><rect x="176" y="123" width="16" height="9" stroke="none" stroke-width="0" fill="#3366cc"></rect><rect x="176" y="169" width="37" height="9" stroke="none" stroke-width="0" fill="#3366cc"></rect><rect x="176" y="215" width="79" height="8" stroke="none" stroke-width="0" fill="#3366cc"></rect><rect x="176" y="260" width="35" height="9" stroke="none" stroke-width="0" fill="#3366cc"></rect><rect x="176" y="306" width="96" height="9" stroke="none" stroke-width="0" fill="#3366cc"></rect><rect x="176" y="352" width="62" height="9" stroke="none" stroke-width="0" fill="#3366cc"></rect><rect x="176" y="398" width="154" height="8" stroke="none" stroke-width="0" fill="#3366cc"></rect><rect x="176" y="443" width="254" height="9" stroke="none" stroke-width="0" fill="#3366cc"></rect><rect x="176" y="133" width="26" height="9" stroke="none" stroke-width="0" fill="#dc3912"></rect><rect x="176" y="179" width="65" height="9" stroke="none" stroke-width="0" fill="#dc3912"></rect><rect x="176" y="224" width="155" height="9" stroke="none" stroke-width="0" fill="#dc3912"></rect><rect x="176" y="270" width="75" height="9" stroke="none" stroke-width="0" fill="#dc3912"></rect><rect x="176" y="316" width="143" height="9" stroke="none" stroke-width="0" fill="#dc3912"></rect><rect x="176" y="362" width="106" height="9" stroke="none" stroke-width="0" fill="#dc3912"></rect><rect x="176" y="407" width="264" height="9" stroke="none" stroke-width="0" fill="#dc3912"></rect><rect x="176" y="453" width="371" height="9" stroke="none" stroke-width="0" fill="#dc3912"></rect><rect x="176" y="143" width="43" height="9" stroke="none" stroke-width="0" fill="#ff9900"></rect><rect x="176" y="189" width="103" height="8" stroke="none" stroke-width="0" fill="#ff9900"></rect><rect x="176" y="234" width="193" height="9" stroke="none" stroke-width="0" fill="#ff9900"></rect><rect x="176" y="280" width="114" height="9" stroke="none" stroke-width="0" fill="#ff9900"></rect><rect x="176" y="326" width="220" height="9" stroke="none" stroke-width="0" fill="#ff9900"></rect><rect x="176" y="372" width="163" height="8" stroke="none" stroke-width="0" fill="#ff9900"></rect><rect x="176" y="417" width="457" height="9" stroke="none" stroke-width="0" fill="#ff9900"></rect><rect x="176" y="463" width="547" height="9" stroke="none" stroke-width="0" fill="#ff9900"></rect></g><g><rect x="175" y="114" width="1" height="367" stroke="none" stroke-width="0" fill="#333333"></rect></g></g><g></g><g><g><text text-anchor="middle" x="175.5" y="501.9" font-family="Arial" font-size="14" stroke="none" stroke-width="0" fill="#444444">0</text></g><g><text text-anchor="middle" x="363.5" y="501.9" font-family="Arial" font-size="14" stroke="none" stroke-width="0" fill="#444444">50,000</text></g><g><text text-anchor="middle" x="551.5" y="501.9" font-family="Arial" font-size="14" stroke="none" stroke-width="0" fill="#444444">100,000</text></g><g><text text-anchor="middle" x="739.5" y="501.9" font-family="Arial" font-size="14" stroke="none" stroke-width="0" fill="#444444">150,000</text></g><g><text text-anchor="end" x="169" y="142.275" font-family="Arial" font-size="14" stroke="none" stroke-width="0" fill="#222222">falcon</text></g><g><text text-anchor="end" x="169" y="188.025" font-family="Arial" font-size="14" stroke="none" stroke-width="0" fill="#222222">falcon pypy</text></g><g><text text-anchor="end" x="169" y="233.775" font-family="Arial" font-size="14" stroke="none" stroke-width="0" fill="#222222">falcon cython meinheld</text></g><g><text text-anchor="end" x="169" y="279.525" font-family="Arial" font-size="14" stroke="none" stroke-width="0" fill="#222222">falcon pypy gevent</text></g><g><text text-anchor="end" x="169" y="325.275" font-family="Arial" font-size="14" stroke="none" stroke-width="0" fill="#222222">uvicorn</text></g><g><text text-anchor="end" x="169" y="371.025" font-family="Arial" font-size="14" stroke="none" stroke-width="0" fill="#222222">uvicon pypy</text></g><g><text text-anchor="end" x="169" y="416.775" font-family="Arial" font-size="14" stroke="none" stroke-width="0" fill="#222222">socketify</text></g><g><text text-anchor="end" x="169" y="462.525" font-family="Arial" font-size="14" stroke="none" stroke-width="0" fill="#222222">socketify pypy</text></g></g></g><g><g><text text-anchor="middle" x="457.5" y="554.1107910379516" font-family="Arial" font-size="14" font-style="italic" stroke="none" stroke-width="0" fill="#222222">requests/s</text><rect x="175" y="542.2107910379516" width="565" height="14" stroke="none" stroke-width="0" fill-opacity="0" fill="#ffffff"></rect></g><g><text text-anchor="middle" x="17.9" y="297.5" font-family="Arial" font-size="14" font-style="italic" transform="rotate(-90 17.9 297.5)" stroke="none" stroke-width="0" fill="#222222">library</text><path d="M5.9999999999999885,481L6.000000000000011,114L20.00000000000001,114L19.99999999999999,481Z" stroke="none" stroke-width="0" fill-opacity="0" fill="#ffffff"></path></g></g><g></g></svg>