<?xml version="1.0" encoding="UTF-8" standalone="no"?><svg xmlns="http://www.w3.org/2000/svg" xmlns:xlink= "http://www.w3.org/1999/xlink" width="914.4947416552353" height="594.4215820759031" aria-label="A chart." style="overflow: hidden;"><defs id="_ABSTRACT_RENDERER_ID_626"><clipPath id="_ABSTRACT_RENDERER_ID_627"><rect x="175" y="114" width="565" height="367"></rect></clipPath></defs><rect x="0" y="0" width="914.4947416552353" height="594.4215820759031" stroke="none" stroke-width="0" fill="#ffffff"></rect><g><rect x="754" y="114" width="146.49474165523532" height="60" stroke="none" stroke-width="0" fill-opacity="0" fill="#ffffff"></rect><g><rect x="754" y="114" width="146.49474165523532" height="14" stroke="none" stroke-width="0" fill-opacity="0" fill="#ffffff"></rect><g><text text-anchor="start" x="787" y="125.9" font-family="Arial" font-size="14" stroke="none" stroke-width="0" fill="#222222">1 process</text></g><rect x="754" y="114" width="28" height="14" stroke="none" stroke-width="0" fill="#3366cc"></rect></g><g><rect x="754" y="137" width="146.49474165523532" height="14" stroke="none" stroke-width="0" fill-opacity="0" fill="#ffffff"></rect><g><text text-anchor="start" x="787" y="148.9" font-family="Arial" font-size="14" stroke="none" stroke-width="0" fill="#222222">2 processes</text></g><rect x="754" y="137" width="28" height="14" stroke="none" stroke-width="0" fill="#dc3912"></rect></g><g><rect x="754" y="160" width="146.49474165523532" height="14" stroke="none" stroke-width="0" fill-opacity="0" fill="#ffffff"></rect><g><text text-anchor="start" x="787" y="171.9" font-family="Arial" font-size="14" stroke="none" stroke-width="0" fill="#222222">4 processes</text></g><rect x="754" y="160" width="28" height="14" stroke="none" stroke-width="0" fill="#ff9900"></rect></g></g><g><rect x="175" y="114" width="565" height="367" stroke="none" stroke-width="0" fill-opacity="0" fill="#ffffff"></rect><g clip-path="url(https://www.rapidtables.com/tools/bar-graph.html#_ABSTRACT_RENDERER_ID_627)"><g><rect x="175" y="114" width="1" height="367" stroke="none" stroke-width="0" fill="#cccccc"></rect><rect x="363" y="114" width="1" height="367" stroke="none" stroke-width="0" fill="#cccccc"></rect><rect x="551" y="114" width="1" height="367" stroke="none" stroke-width="0" fill="#cccccc"></rect><rect x="739" y="114" width="1" height="367" stroke="none" stroke-width="0" fill="#cccccc"></rect><rect x="269" y="114" width="1" height="367" stroke="none" stroke-width="0" fill="#ebebeb"></rect><rect x="457" y="114" width="1" height="367" stroke="none" stroke-width="0" fill="#ebebeb"></rect><rect x="645" y="114" width="1" height="367" stroke="none" stroke-width="0" fill="#ebebeb"></rect></g><g><rect x="176" y="122" width="16" height="8" stroke="none" stroke-width="0" fill="#3366cc"></rect><rect x="176" y="163" width="37" height="8" stroke="none" stroke-width="0" fill="#3366cc"></rect><rect x="176" y="204" width="79" height="7" stroke="none" stroke-width="0" fill="#3366cc"></rect><rect x="176" y="244" width="35" height="8" stroke="none" stroke-width="0" fill="#3366cc"></rect><rect x="176" y="285" width="74" height="8" stroke="none" stroke-width="0" fill="#3366cc"></rect><rect x="176" y="326" width="62" height="7" stroke="none" stroke-width="0" fill="#3366cc"></rect><rect x="176" y="366" width="96" height="8" stroke="none" stroke-width="0" fill="#3366cc"></rect><rect x="176" y="407" width="154" height="8" stroke="none" stroke-width="0" fill="#3366cc"></rect><rect x="176" y="448" width="254" height="7" stroke="none" stroke-width="0" fill="#3366cc"></rect><rect x="176" y="131" width="26" height="8" stroke="none" stroke-width="0" fill="#dc3912"></rect><rect x="176" y="172" width="65" height="7" stroke="none" stroke-width="0" fill="#dc3912"></rect><rect x="176" y="212" width="155" height="8" stroke="none" stroke-width="0" fill="#dc3912"></rect><rect x="176" y="253" width="75" height="8" stroke="none" stroke-width="0" fill="#dc3912"></rect><rect x="176" y="294" width="123" height="7" stroke="none" stroke-width="0" fill="#dc3912"></rect><rect x="176" y="334" width="106" height="8" stroke="none" stroke-width="0" fill="#dc3912"></rect><rect x="176" y="375" width="143" height="8" stroke="none" stroke-width="0" fill="#dc3912"></rect><rect x="176" y="416" width="264" height="7" stroke="none" stroke-width="0" fill="#dc3912"></rect><rect x="176" y="456" width="371" height="8" stroke="none" stroke-width="0" fill="#dc3912"></rect><rect x="176" y="140" width="43" height="7" stroke="none" stroke-width="0" fill="#ff9900"></rect><rect x="176" y="180" width="103" height="8" stroke="none" stroke-width="0" fill="#ff9900"></rect><rect x="176" y="221" width="193" height="8" stroke="none" stroke-width="0" fill="#ff9900"></rect><rect x="176" y="262" width="114" height="7" stroke="none" stroke-width="0" fill="#ff9900"></rect><rect x="176" y="302" width="180" height="8" stroke="none" stroke-width="0" fill="#ff9900"></rect><rect x="176" y="343" width="163" height="8" stroke="none" stroke-width="0" fill="#ff9900"></rect><rect x="176" y="384" width="220" height="7" stroke="none" stroke-width="0" fill="#ff9900"></rect><rect x="176" y="424" width="457" height="8" stroke="none" stroke-width="0" fill="#ff9900"></rect><rect x="176" y="465" width="547" height="8" stroke="none" stroke-width="0" fill="#ff9900"></rect></g><g><rect x="175" y="114" width="1" height="367" stroke="none" stroke-width="0" fill="#333333"></rect></g></g><g></g><g><g><text text-anchor="middle" x="175.5" y="501.9" font-family="Arial" font-size="14" stroke="none" stroke-width="0" fill="#444444">0</text></g><g><text text-anchor="middle" x="363.5" y="501.9" font-family="Arial" font-size="14" stroke="none" stroke-width="0" fill="#444444">50,000</text></g><g><text text-anchor="middle" x="551.5" y="501.9" font-family="Arial" font-size="14" stroke="none" stroke-width="0" fill="#444444">100,000</text></g><g><text text-anchor="middle" x="739.5" y="501.9" font-family="Arial" font-size="14" stroke="none" stroke-width="0" fill="#444444">150,000</text></g><g><text text-anchor="end" x="169" y="139.73333333333335" font-family="Arial" font-size="14" stroke="none" stroke-width="0" fill="#222222">falcon</text></g><g><text text-anchor="end" x="169" y="180.4" font-family="Arial" font-size="14" stroke="none" stroke-width="0" fill="#222222">falcon pypy</text></g><g><text text-anchor="end" x="169" y="221.06666666666666" font-family="Arial" font-size="14" stroke="none" stroke-width="0" fill="#222222">falcon cython meinheld</text></g><g><text text-anchor="end" x="169" y="261.7333333333333" font-family="Arial" font-size="14" stroke="none" stroke-width="0" fill="#222222">falcon pypy gevent</text></g><g><text text-anchor="end" x="169" y="302.4" font-family="Arial" font-size="14" stroke="none" stroke-width="0" fill="#222222">uvicorn</text></g><g><text text-anchor="end" x="169" y="343.0666666666666" font-family="Arial" font-size="14" stroke="none" stroke-width="0" fill="#222222">uvicon pypy</text></g><g><text text-anchor="end" x="169" y="383.7333333333333" font-family="Arial" font-size="14" stroke="none" stroke-width="0" fill="#222222">robyn</text></g><g><text text-anchor="end" x="169" y="424.4" font-family="Arial" font-size="14" stroke="none" stroke-width="0" fill="#222222">socketify</text></g><g><text text-anchor="end" x="169" y="465.0666666666666" font-family="Arial" font-size="14" stroke="none" stroke-width="0" fill="#222222">socketify pypy</text></g></g></g><g><g><text text-anchor="middle" x="457.5" y="554.1107910379516" font-family="Arial" font-size="14" font-style="italic" stroke="none" stroke-width="0" fill="#222222">library</text><rect x="175" y="542.2107910379516" width="565" height="14" stroke="none" stroke-width="0" fill-opacity="0" fill="#ffffff"></rect></g><g><text text-anchor="middle" x="17.9" y="297.5" font-family="Arial" font-size="14" font-style="italic" transform="rotate(-90 17.9 297.5)" stroke="none" stroke-width="0" fill="#222222">requests/s</text><path d="M5.9999999999999885,481L6.000000000000011,114L20.00000000000001,114L19.99999999999999,481Z" stroke="none" stroke-width="0" fill-opacity="0" fill="#ffffff"></path></g></g><g></g></svg>