<?xml version="1.0" encoding="UTF-8" standalone="no"?><svg xmlns="http://www.w3.org/2000/svg" xmlns:xlink= "http://www.w3.org/1999/xlink" width="600" height="390" aria-label="A chart." style="overflow: hidden;"><defs id="_ABSTRACT_RENDERER_ID_394"><clipPath id="_ABSTRACT_RENDERER_ID_395"><rect x="115" y="75" width="371" height="241"></rect></clipPath><filter id="_ABSTRACT_RENDERER_ID_396"><feGaussianBlur in="SourceAlpha" stdDeviation="2"></feGaussianBlur><feOffset dx="1" dy="1"></feOffset><feComponentTransfer><feFuncA type="linear" slope="0.1"></feFuncA></feComponentTransfer><feMerge><feMergeNode></feMergeNode><feMergeNode in="SourceGraphic"></feMergeNode></feMerge></filter></defs><rect x="0" y="0" width="600" height="390" stroke="none" stroke-width="0" fill="#ffffff"></rect><g><rect x="499" y="75" width="88" height="55" stroke="none" stroke-width="0" fill-opacity="0" fill="#ffffff"></rect><g><rect x="499" y="75" width="88" height="13" stroke="none" stroke-width="0" fill-opacity="0" fill="#ffffff"></rect><g><text text-anchor="start" x="530" y="86.05" font-family="Arial" font-size="13" stroke="none" stroke-width="0" fill="#222222">1 process</text></g><rect x="499" y="75" width="26" height="13" stroke="none" stroke-width="0" fill="#3366cc"></rect></g><g><rect x="499" y="96" width="88" height="13" stroke="none" stroke-width="0" fill-opacity="0" fill="#ffffff"></rect><g><text text-anchor="start" x="530" y="107.05" font-family="Arial" font-size="13" stroke="none" stroke-width="0" fill="#222222">2 process</text></g><rect x="499" y="96" width="26" height="13" stroke="none" stroke-width="0" fill="#dc3912"></rect></g><g><rect x="499" y="117" width="88" height="13" stroke="none" stroke-width="0" fill-opacity="0" fill="#ffffff"></rect><g><text text-anchor="start" x="530" y="128.05" font-family="Arial" font-size="13" stroke="none" stroke-width="0" fill="#222222">4 process</text></g><rect x="499" y="117" width="26" height="13" stroke="none" stroke-width="0" fill="#ff9900"></rect></g></g><g><rect x="115" y="75" width="371" height="241" stroke="none" stroke-width="0" fill-opacity="0" fill="#ffffff"></rect><g clip-path="url(https://www.rapidtables.com/tools/bar-graph.html#_ABSTRACT_RENDERER_ID_395)"><g><rect x="115" y="315" width="371" height="1" stroke="none" stroke-width="0" fill="#cccccc"></rect><rect x="115" y="235" width="371" height="1" stroke="none" stroke-width="0" fill="#cccccc"></rect><rect x="115" y="155" width="371" height="1" stroke="none" stroke-width="0" fill="#cccccc"></rect><rect x="115" y="75" width="371" height="1" stroke="none" stroke-width="0" fill="#cccccc"></rect><rect x="115" y="275" width="371" height="1" stroke="none" stroke-width="0" fill="#ebebeb"></rect><rect x="115" y="195" width="371" height="1" stroke="none" stroke-width="0" fill="#ebebeb"></rect><rect x="115" y="115" width="371" height="1" stroke="none" stroke-width="0" fill="#ebebeb"></rect></g><g><rect x="127" y="309" width="12" height="6" stroke="none" stroke-width="0" fill="#3366cc"></rect><rect x="189" y="300" width="12" height="15" stroke="none" stroke-width="0" fill="#3366cc"></rect><rect x="251" y="275" width="12" height="40" stroke="none" stroke-width="0" fill="#3366cc"></rect><rect x="312" y="289" width="12" height="26" stroke="none" stroke-width="0" fill="#3366cc"></rect><rect x="374" y="250" width="12" height="65" stroke="none" stroke-width="0" fill="#3366cc"></rect><rect x="436" y="207" width="12" height="108" stroke="none" stroke-width="0" fill="#3366cc"></rect><rect x="140" y="304" width="12" height="11" stroke="none" stroke-width="0" fill="#dc3912"></rect><rect x="202" y="288" width="12" height="27" stroke="none" stroke-width="0" fill="#dc3912"></rect><rect x="264" y="255" width="12" height="60" stroke="none" stroke-width="0" fill="#dc3912"></rect><rect x="325" y="270" width="12" height="45" stroke="none" stroke-width="0" fill="#dc3912"></rect><rect x="387" y="203" width="12" height="112" stroke="none" stroke-width="0" fill="#dc3912"></rect><rect x="449" y="158" width="12" height="157" stroke="none" stroke-width="0" fill="#dc3912"></rect><rect x="153" y="297" width="12" height="18" stroke="none" stroke-width="0" fill="#ff9900"></rect><rect x="215" y="272" width="12" height="43" stroke="none" stroke-width="0" fill="#ff9900"></rect><rect x="277" y="222" width="12" height="93" stroke="none" stroke-width="0" fill="#ff9900"></rect><rect x="338" y="246" width="12" height="69" stroke="none" stroke-width="0" fill="#ff9900"></rect><rect x="400" y="121" width="12" height="194" stroke="none" stroke-width="0" fill="#ff9900"></rect><rect x="462" y="83" width="12" height="232" stroke="none" stroke-width="0" fill="#ff9900"></rect></g><g><rect x="115" y="315" width="371" height="1" stroke="none" stroke-width="0" fill="#333333"></rect></g></g><g></g><g><g><text text-anchor="middle" x="146.33333333333334" y="335.05" font-family="Arial" font-size="13" stroke="none" stroke-width="0" fill="#222222">falcon</text></g><g><text text-anchor="middle" x="208" y="335.05" font-family="Arial" font-size="13" stroke="none" stroke-width="0" fill="#222222">falcon</text><text text-anchor="middle" x="208" y="352.05" font-family="Arial" font-size="13" stroke="none" stroke-width="0" fill="#222222">pypy</text></g><g><text text-anchor="middle" x="269.66666666666663" y="335.05" font-family="Arial" font-size="13" stroke="none" stroke-width="0" fill="#222222">uvicorn</text></g><g><text text-anchor="middle" x="331.3333333333333" y="335.05" font-family="Arial" font-size="13" stroke="none" stroke-width="0" fill="#222222">uvicon</text><text text-anchor="middle" x="331.3333333333333" y="352.05" font-family="Arial" font-size="13" stroke="none" stroke-width="0" fill="#222222">pypy</text></g><g><text text-anchor="middle" x="393" y="335.05" font-family="Arial" font-size="13" stroke="none" stroke-width="0" fill="#222222">socketify</text></g><g><text text-anchor="middle" x="454.66666666666663" y="335.05" font-family="Arial" font-size="13" stroke="none" stroke-width="0" fill="#222222">socketify</text><text text-anchor="middle" x="454.66666666666663" y="352.05" font-family="Arial" font-size="13" stroke="none" stroke-width="0" fill="#222222">pypy</text></g><g><text text-anchor="end" x="102" y="320.05" font-family="Arial" font-size="13" stroke="none" stroke-width="0" fill="#444444">0</text></g><g><text text-anchor="end" x="102" y="240.05" font-family="Arial" font-size="13" stroke="none" stroke-width="0" fill="#444444">50,000</text></g><g><text text-anchor="end" x="102" y="160.05" font-family="Arial" font-size="13" stroke="none" stroke-width="0" fill="#444444">100,000</text></g><g><text text-anchor="end" x="102" y="80.05" font-family="Arial" font-size="13" stroke="none" stroke-width="0" fill="#444444">150,000</text></g></g></g><g><g><text text-anchor="middle" x="300.5" y="376.55" font-family="Arial" font-size="13" font-style="italic" stroke="none" stroke-width="0" fill="#222222">library</text><rect x="115" y="365.5" width="371" height="13" stroke="none" stroke-width="0" fill-opacity="0" fill="#ffffff"></rect></g><g><text text-anchor="middle" x="32.05" y="195.5" font-family="Arial" font-size="13" font-style="italic" transform="rotate(-90 32.05 195.5)" stroke="none" stroke-width="0" fill="#222222">requests/s</text><path d="M20.999999999999996,316L21.00000000000001,75L34.00000000000001,75L33.99999999999999,316Z" stroke="none" stroke-width="0" fill-opacity="0" fill="#ffffff"></path></g></g><g></g></svg>