<svg width="270" height="263.2590560045322" viewBox="0 0 270 263.2590560045322" class="css-1j8o68f"><defs id="SvgjsDefs1290"></defs><g id="SvgjsG1291" featurekey="rootContainer" transform="matrix(2.5809711372993354,0,0,2.5809711372993354,0.030434266996216174,0)" fill="#111111"><path xmlns="http://www.w3.org/2000/svg" d="M50.8 102h5.8l1.8-.2 1.7-.3h1.7l1.9-.3 1.8-.4.9-.2.9-.3 1.7-.6 2-.8a54 54 0 0 0 15.3-9.4l1.4-1.2.7-.5.6-.4 1-.5.8-.5 1.5-1.2 1.5-1.5.8-1 .9-1.1a50.9 50.9 0 0 0 3.9-5.8 34.8 34.8 0 0 0 1.6-3.1l.2-.4.2-.4.3-.8.3-.9.2-.4v-.4l.4-1.2.2-.6v-.3h.1v-.2l.7-2.5c.2-.9.4-1.7.5-2.6a25.4 25.4 0 0 0 .2-2.6v-3.1c0-.3 0-1 .1-1.5v-2.1a21.3 21.3 0 0 0 .2-2.6v-2.6c0-.9-.1-1.1-.1-1.6l-.2-1.5c-.1-1-.4-2-.5-3s-.2-1-.3-1.4l-.3-1.4-.3-1.4v-1.7l-.4-1.4-.2-.7-.2-.7-.4-1.4-.5-1.4-.4-1-.5-1-1-2.1a40.7 40.7 0 0 1-1.8-4.1 3.6 3.6 0 0 0-.8-1.2l-.7-.6-.2-.3-.3-.5a25.7 25.7 0 0 0-1.6-2.3l-.8-1.1-.9-1.1-.4-.5-.2-.3-.2-.2h-.1l-.9-1-.5-.5-.5-.5-.9-1.1-1.1-1a47.9 47.9 0 0 0-3.8-3l-.1-.5-1.3-.9A29 29 0 0 0 72 .4h-3.1a.8.8 0 0 0-.6 1.2A3.9 3.9 0 0 0 69.9 3l-.6.3-.4-.2a.9.9 0 0 0 0-.3c-.1-.5-.2-.9-1.3-1.3L65.3.7l-.6-.2h-.6L62.8 0l-1.3 1.2A48.5 48.5 0 0 0 39 2.4 31.1 31.1 0 0 0 31.4 4h-.5l-.5.2-1 .4-1 .5-.9.6-1.8 1.5-.8.6-.7.7c-1 .9-1.9 1.9-2.8 2.8L20 12.8l-1.4 1.5-.5.5-.5.5-1.1 1a55.1 55.1 0 0 0-7 7l.2-.5.6-1.1.6-1.1.6-1.1.6-1.2.6-1.2 1.2-2.4.4-.8.3-.6a1 1 0 0 0 0-.8 3.7 3.7 0 0 1-.2-1.2 17.1 17.1 0 0 0-2.1 1.1l-1.5 1.1-.8.6-.7.7-.8 1-.5 1-.5 1-.2.5-.3.5-.3.6-.4.8-.4.8-.7 1.7-.5 1.3-.5 1.3v.7l-.2.6-.3 1.3v.2h-.4v.3l-.2.7-.3 1.4-.2.7-.2.7-.4 1.7-.4 1.9-.2.9v2.8l-.6 1.9a38.3 38.3 0 0 0-.1 4.1 52.7 52.7 0 0 0-.7 8.7 5.2 5.2 0 0 0 0 .7c.5 3 .8 6 1.5 9l.4 1.8.5 1.8a18.3 18.3 0 0 0 .6 1.7l.4.8.4.8.9 1.7.5.8.5.8.5.8.5.8L7.8 77c1.4 2 2.9 4 4.5 5.9a35.6 35.6 0 0 0 2.6 2.7l.7.6.3.3.4.3 1.5 1.1 1 1a34 34 0 0 0 8.2 6.2l1.4.7 1.5.7.7.3.8.3 1.5.6.9.4.8.4.8.4 1 .4 1.9.7 1.9.6 1.6.4 1.6.4 1.6.3h5.7z"></path></g><g id="SvgjsG1292" featurekey="symbolFeature-0" transform="matrix(1.0648576738329052,0,0,1.0648576738329052,87.75157457525566,50.80146134394898)" fill="#ffffff"><path xmlns="http://www.w3.org/2000/svg" d="M50.812,11.956c-16.078-2.855-32.23,6.785-38.097,21.792c-6.203,15.869,1.554,33.692,16.233,41.5    c14.254,7.584,32.254,3.441,42.646-8.531c5.165-5.95,7.783-13.695,7.911-21.506C79.232,28.461,67.201,14.866,50.812,11.956z     M69.744,24.239c1.645,4.117-1.037,11.353-6.55,19.06c-0.405-0.279-0.894-0.445-1.421-0.445c-0.451,0-0.867,0.129-1.233,0.338    c-2.693-3.283-5.833-6.561-9.319-9.643c-1.286-1.138-2.582-2.209-3.877-3.223c0.289-0.408,0.461-0.903,0.461-1.44    c0-0.428-0.117-0.826-0.307-1.178c6.311-4.222,12.275-6.671,16.626-6.671c1.257,0,2.319,0.212,3.196,0.619    C68.174,22.471,68.979,23.336,69.744,24.239z M29.57,44.146c2.754-3.393,6.002-6.801,9.625-10.006    c1.425-1.26,2.859-2.436,4.29-3.54c0.457,0.483,1.099,0.788,1.815,0.788c0.559,0,1.068-0.188,1.484-0.497    c1.305,1.02,2.613,2.099,3.913,3.249c3.454,3.055,6.566,6.295,9.235,9.532c-0.408,0.445-0.664,1.034-0.664,1.686    c0,0.76,0.346,1.433,0.881,1.893c-2.663,3.227-5.768,6.455-9.211,9.502c-1.509,1.334-3.029,2.576-4.543,3.734    c-0.418-0.311-0.93-0.502-1.491-0.502c-0.542,0-1.04,0.176-1.45,0.469c-1.5-1.15-3.006-2.381-4.5-3.701    c-3.416-3.021-6.492-6.224-9.141-9.423c0.289-0.409,0.465-0.905,0.465-1.445C30.279,45.208,30.008,44.597,29.57,44.146z     M45.852,12.683c7.662,0.123,14.636,3.047,20.099,7.73c-0.568-0.106-1.174-0.168-1.826-0.168c-4.501,0-10.637,2.51-17.099,6.832    c-0.449-0.429-1.055-0.696-1.725-0.696c-0.814,0-1.531,0.396-1.988,0.999c-6.625-4.505-12.941-7.135-17.543-7.135    c-0.609,0-1.176,0.058-1.714,0.151C30.029,15.469,37.731,12.553,45.852,12.683z M20.203,24.122    c0.768-0.875,1.586-1.707,2.443-2.498c0.863-0.386,1.9-0.589,3.123-0.589c4.475,0,10.66,2.597,17.172,7.045    c-0.088,0.253-0.145,0.521-0.145,0.805c0,0.381,0.092,0.738,0.244,1.062c-1.457,1.124-2.92,2.32-4.369,3.602    c-3.662,3.238-6.938,6.692-9.717,10.141c-0.354-0.19-0.752-0.308-1.18-0.308c-0.316,0-0.615,0.065-0.895,0.172    C21.19,35.675,18.438,28.262,20.203,24.122z M12.334,45.209c-0.122-7.42,2.418-14.212,6.671-19.649    c-0.633,4.498,2.134,11.275,7.217,18.374c-0.574,0.459-0.951,1.157-0.951,1.951c0,0.682,0.273,1.298,0.717,1.751    c-4.617,6.618-7.179,12.901-6.792,17.246C14.993,59.329,12.454,52.464,12.334,45.209z M20.231,66.183    c-1.251-4.09,1.289-10.859,6.369-18.1c0.352,0.189,0.747,0.307,1.176,0.307c0.562,0,1.074-0.192,1.492-0.506    c2.659,3.223,5.742,6.436,9.163,9.461c1.48,1.309,2.971,2.528,4.46,3.671c-0.303,0.413-0.488,0.92-0.488,1.473    c0,0.27,0.054,0.524,0.132,0.767c-6.274,4.182-12.197,6.603-16.524,6.603c-0.998,0-1.875-0.132-2.634-0.39    C22.255,68.446,21.205,67.348,20.231,66.183z M44.257,77.898c-7.452-0.119-14.249-2.893-19.643-7.353    c0.444,0.06,0.904,0.102,1.396,0.102c4.449,0,10.498-2.451,16.881-6.684c0.457,0.62,1.187,1.028,2.015,1.028    c0.847,0,1.593-0.421,2.045-1.064c6.401,4.254,12.473,6.72,16.933,6.72l0,0c0.643,0,1.239-0.061,1.801-0.164    C59.879,75.231,52.418,78.029,44.257,77.898z M69.366,66.956c-0.704,0.787-1.447,1.54-2.224,2.256    c-0.889,0.427-1.974,0.646-3.26,0.646c-4.341,0-10.291-2.44-16.592-6.647c0.07-0.23,0.118-0.469,0.118-0.722    c0-0.535-0.171-1.028-0.457-1.435c1.505-1.154,3.014-2.386,4.511-3.709c3.497-3.093,6.646-6.383,9.346-9.676    c0.297,0.123,0.623,0.193,0.965,0.193c0.42,0,0.811-0.114,1.158-0.297C68.6,55.478,71.277,62.894,69.366,66.956z M70.633,65.454    c0.695-4.463-2.03-11.229-7.084-18.332c0.449-0.452,0.729-1.075,0.729-1.764c0-0.577-0.203-1.102-0.531-1.525    c4.991-6.997,7.721-13.67,7.156-18.147c4.209,5.557,6.754,12.427,6.873,19.688C77.65,52.989,75,59.943,70.633,65.454z"></path></g><g id="SvgjsG1293" featurekey="nameFeature-0" transform="matrix(1.4397022002711963,0,0,1.4397022002711963,33.974710618177184,140.88494146321906)" fill="#ffffff"><path d="M3.88 21.2 c0.4 0.56 0.84 1.08 1.32 1.6 c0.36 0.44 0.8 0.72 1.28 0.96 c0.36 0.12 0.68 0.28 1 0.44 c0.56 0.36 1.04 0.72 1.48 1.16 c0.4 0.4 0.8 0.84 1.24 1.16 c0.12 0.12 0.2 0.24 0.36 0.36 l0.32 0 c0.12 0.04 0.2 0.08 0.28 0.16 c0.28 0.28 0.48 0.6 0.56 1 c0.04 0.32 0.12 0.64 0.24 0.96 c0.12 0.4 0.16 0.84 0.2 1.28 l0 1.16 c0 0.2 0 0.44 0.12 0.64 c0.04 0.08 0.04 0.2 0.04 0.32 c0.04 0.24 0.04 0.48 0.08 0.68 c0.08 0.56 0.08 1.08 -0.04 1.64 c-0.04 0.08 -0.04 0.2 -0.04 0.32 c-0.04 0.08 -0.04 0.2 -0.08 0.32 c-0.16 0.4 -0.24 0.84 -0.4 1.28 c0 0.04 -0.04 0.12 -0.08 0.16 c-0.2 0.28 -0.36 0.6 -0.56 0.88 c-0.08 0.12 -0.16 0.24 -0.28 0.36 c-0.32 0.08 -0.64 0.2 -0.96 0.4 c-0.08 0.08 -0.2 0.12 -0.36 0.12 c-0.12 0 -0.28 0.04 -0.44 0.04 c-0.24 0.04 -0.4 0.12 -0.56 0.32 s-0.36 0.28 -0.6 0.32 l-0.2 0 c-0.24 0.04 -0.52 0.12 -0.76 0.12 c-0.28 0 -0.52 -0.08 -0.76 -0.12 l-0.4 0 c-0.24 0 -0.48 -0.04 -0.68 -0.16 c-0.36 -0.16 -0.76 -0.28 -1.12 -0.36 c-0.28 -0.08 -0.52 -0.2 -0.76 -0.36 s-0.48 -0.32 -0.72 -0.44 c-0.6 -0.32 -1 -0.88 -1.36 -1.48 c-0.04 -0.2 -0.12 -0.4 -0.12 -0.6 c-0.04 -0.4 -0.16 -0.76 -0.2 -1.16 c-0.12 -0.6 -0.24 -1.2 -0.2 -1.8 c0.04 -0.2 0.04 -0.4 0.08 -0.6 c0.04 -0.28 0.08 -0.56 0.08 -0.84 c0 -0.16 0 -0.32 0.04 -0.48 c0.12 -0.28 0.08 -0.52 0.04 -0.76 c-0.08 -0.24 -0.12 -0.44 -0.2 -0.68 c0.08 -0.2 0.16 -0.4 0.24 -0.64 c0.04 -0.12 0.16 -0.2 0.28 -0.2 l0.48 0 c0.44 -0.04 0.92 -0.04 1.36 -0.04 c0.2 0 0.32 0.08 0.44 0.2 c0.08 0.08 0.12 0.16 0.12 0.24 c-0.04 0.24 0 0.44 0.2 0.6 c0.08 0.08 0.12 0.2 0.08 0.36 c-0.04 0.08 -0.08 0.2 -0.12 0.32 c-0.08 0.2 -0.12 0.44 -0.08 0.68 c0.08 0.24 0.04 0.52 0.08 0.76 c0 0.28 -0.04 0.52 0.08 0.8 c0.04 0.12 0.04 0.24 0 0.36 c-0.12 0.36 -0.08 0.68 -0.04 1.04 c0 0.16 0.08 0.32 0.24 0.44 c0.36 0.32 0.72 0.6 1.2 0.76 c0.12 0.04 0.28 0.12 0.4 0.16 c0.2 0.08 0.4 0.12 0.64 0.12 c0.16 0 0.36 0 0.52 0.08 c0.56 0.12 1.08 0.04 1.6 -0.16 c0.2 -0.04 0.4 -0.16 0.6 -0.24 c0.16 -0.44 0.32 -0.84 0.28 -1.32 l0 -2.84 l0 -0.4 c0 -0.28 -0.08 -0.52 -0.36 -0.64 c-0.08 -0.08 -0.16 -0.16 -0.2 -0.28 c-0.08 -0.36 -0.32 -0.64 -0.6 -0.88 c-0.52 -0.48 -1 -0.96 -1.52 -1.44 c-0.12 -0.08 -0.2 -0.2 -0.36 -0.24 c-0.16 0 -0.36 -0.08 -0.48 -0.16 c-0.28 -0.16 -0.56 -0.24 -0.88 -0.32 c-0.8 -0.2 -1.52 -0.56 -2.12 -1.12 c-0.52 -0.48 -0.84 -1.04 -1.16 -1.56 c-0.16 -0.24 -0.28 -0.52 -0.4 -0.76 c-0.2 -0.36 -0.24 -0.8 -0.36 -1.16 c-0.04 -0.08 0 -0.16 0 -0.2 c0.08 -0.28 0.12 -0.52 -0.04 -0.76 c-0.04 -0.48 -0.16 -0.92 -0.12 -1.4 c0.04 -0.44 0.08 -0.88 0.04 -1.32 l0 -0.16 c0.12 -0.32 0.12 -0.6 0.12 -0.92 l0 -1.88 c-0.04 -0.4 0.08 -0.76 0.32 -1.08 c0.08 -0.12 0.12 -0.2 0.2 -0.28 c0.28 -0.36 0.6 -0.76 0.92 -1.12 c0.04 -0.08 0.12 -0.12 0.24 -0.2 c0.36 -0.16 0.64 -0.4 0.96 -0.64 c0.24 -0.2 0.52 -0.36 0.84 -0.48 c0.28 -0.08 0.52 -0.24 0.8 -0.24 c0.12 0 0.24 -0.04 0.4 -0.04 c0.32 0 0.64 -0.04 0.96 -0.08 c0.2 -0.04 0.44 0 0.64 0.04 c0.36 0.04 0.68 0.08 1.04 0.08 c0.24 0.04 0.52 0.04 0.76 0.12 c0.2 0.04 0.4 0.16 0.6 0.28 c0.32 0.2 0.56 0.52 0.76 0.84 c0.16 0.24 0.28 0.48 0.48 0.68 c0.12 0.16 0.24 0.32 0.28 0.52 c0.04 0.12 0.08 0.24 0.16 0.36 c0.12 0.36 0.24 0.72 0.28 1.12 c0.04 0.16 0.08 0.32 0.08 0.44 c0.04 0.32 0.16 0.6 0.4 0.8 c0.12 0.08 0.12 0.16 0.12 0.28 c0 0.48 0 0.96 -0.04 1.44 c-0.08 0.36 -0.08 0.72 -0.08 1.08 c0 0.52 -0.04 1 -0.16 1.48 c-0.04 0.2 -0.04 0.36 0 0.52 c0.04 0.12 0.04 0.2 0.04 0.32 c0 0.08 0 0.12 -0.04 0.2 c-0.16 0.16 -0.32 0.28 -0.52 0.36 c-0.44 0.12 -0.88 0.2 -1.36 0.28 c-0.04 0.04 -0.12 0 -0.16 -0.04 c-0.12 -0.12 -0.28 -0.28 -0.4 -0.44 c0 -0.04 -0.04 -0.12 -0.04 -0.16 c-0.04 -0.28 -0.08 -0.52 -0.08 -0.8 c0.04 -0.36 0 -0.72 0 -1.08 c0 -0.28 0.04 -0.56 -0.04 -0.84 c-0.04 -0.04 -0.04 -0.08 -0.04 -0.12 c0.08 -0.72 -0.12 -1.44 -0.28 -2.12 c0 -0.04 0 -0.08 -0.04 -0.12 c-0.2 -0.36 -0.36 -0.8 -0.68 -1.12 c-0.2 -0.24 -0.44 -0.48 -0.68 -0.68 c-0.28 -0.24 -0.6 -0.36 -0.88 -0.52 l-0.2 0 c-0.44 0 -0.84 0.16 -1.24 0.36 c-0.08 0.04 -0.12 0.12 -0.2 0.16 l-0.56 0.56 s-0.4 0.4 -0.44 0.68 c0 0.12 -0.04 0.2 -0.04 0.28 c-0.04 0.08 -0.08 0.2 -0.04 0.32 c0.04 0.32 -0.16 0.68 -0.12 1 l0 2.88 c0 0.16 0.04 0.32 0.04 0.52 z M19.366 39.72 l-0.36 -0.12 s-0.24 -0.04 -0.32 0 s-0.2 0.04 -0.28 0.04 c-0.6 -0.08 -1.32 -0.24 -1.8 -0.8 c-0.04 0 -0.08 -0.04 -0.12 -0.08 c-0.64 -0.4 -1.04 -1 -1.6 -1.52 c-0.2 -0.16 -0.32 -0.36 -0.44 -0.56 c-0.08 -0.16 -0.16 -0.36 -0.2 -0.52 c-0.12 -0.28 -0.2 -0.56 -0.2 -0.84 c0.04 -0.2 -0.04 -0.4 -0.08 -0.6 c-0.08 -0.28 -0.12 -0.56 -0.2 -0.84 c-0.2 -0.68 -0.28 -1.36 -0.44 -2.04 c-0.08 -0.36 -0.08 -0.72 -0.08 -1.08 c0 -1.24 -0.04 -2.48 -0.04 -3.72 s0.04 -2.48 0.04 -3.76 l0 -1.8 c0.04 -0.28 0 -0.56 -0.16 -0.8 c-0.04 -0.08 -0.04 -0.2 -0.04 -0.32 c0.04 -0.08 0.04 -0.12 0.04 -0.2 c0.08 -0.44 0.08 -0.88 -0.04 -1.32 c-0.04 -0.2 -0.04 -0.4 0 -0.6 c0.08 -0.36 0.12 -0.68 0 -1 l0 -0.28 c0.04 -0.12 0.04 -0.2 0.08 -0.32 c0.12 -0.28 0.16 -0.6 0.16 -0.92 c0 -0.24 0.04 -0.48 0.16 -0.72 c0.2 -0.48 0.52 -0.88 0.72 -1.36 c0.04 -0.08 0.08 -0.16 0.16 -0.2 c0.4 -0.44 0.8 -0.88 1.28 -1.2 c0.32 -0.2 0.6 -0.44 0.92 -0.68 c0.16 -0.16 0.36 -0.24 0.6 -0.28 c0.32 -0.08 0.6 -0.12 0.92 -0.2 c0.16 -0.08 0.32 -0.08 0.44 -0.08 c0.16 -0.04 0.32 -0.04 0.48 -0.08 c0.12 -0.04 0.28 -0.04 0.4 0.04 c0.04 0.04 0.12 0.04 0.16 0.08 c0.2 0.12 0.44 0.16 0.68 0.16 l0.4 0 s0.28 0.04 0.4 0.16 c0.04 0.04 0.08 0.08 0.12 0.08 c0.12 0.16 0.28 0.24 0.44 0.28 c0.44 0.16 0.72 0.44 1 0.8 c0.16 0.24 0.36 0.52 0.6 0.72 c0.08 0.08 0.16 0.2 0.2 0.32 c0.12 0.28 0.24 0.52 0.32 0.84 c0.04 0.2 0.16 0.4 0.24 0.6 c0.12 0.24 0.2 0.52 0.24 0.76 c0 0.36 0.08 0.72 0.16 1.08 c0.08 0.32 0.12 0.68 0.12 1 c-0.04 0.32 0 0.64 0.12 0.92 c0.04 0.12 0.04 0.24 0.04 0.32 c0.04 0.2 0.04 0.4 -0.08 0.52 c-0.08 0.12 -0.08 0.28 -0.08 0.4 l0 0.72 l0 13.24 c0.04 0.6 -0.12 1.2 -0.36 1.76 l-0.84 1.92 c-0.08 0.12 -0.16 0.2 -0.24 0.32 c-0.36 0.52 -0.92 0.84 -1.4 1.2 c-0.2 0.16 -0.4 0.24 -0.64 0.28 c-0.12 0 -0.28 0.04 -0.4 0.04 c-0.4 0 -0.8 0.12 -1.2 0.24 z M16.366 26.52 l0 4.48 l0 0.68 c0 0.12 0 0.24 0.04 0.32 c0.16 0.28 0.2 0.56 0.24 0.84 c0.04 0.12 0.08 0.28 0.12 0.4 c0.16 0.4 0.32 0.76 0.48 1.16 c0.08 0.16 0.16 0.36 0.24 0.48 c0.28 0.32 0.56 0.64 0.8 0.92 c0.32 0.36 0.76 0.48 1.24 0.44 c0.36 -0.04 0.64 -0.16 0.8 -0.52 c0.04 -0.08 0.04 -0.16 0.08 -0.24 c0 -0.36 0.12 -0.72 0.24 -1.08 c0.08 -0.28 0.16 -0.56 0.16 -0.84 c0 -0.2 0.08 -0.4 0.12 -0.6 c0.24 -0.56 0.32 -1.16 0.36 -1.76 c0 -0.44 0 -0.84 0.04 -1.28 c0 -0.16 0 -0.32 -0.08 -0.48 c-0.04 -0.08 -0.04 -0.2 0 -0.32 c0.12 -0.52 0.08 -1.04 0.04 -1.56 c-0.08 -0.76 -0.04 -1.56 -0.04 -2.32 c0 -1.48 0.04 -2.92 0.04 -4.4 c0.04 -0.24 0.04 -0.44 -0.04 -0.68 c-0.04 -0.08 -0.04 -0.2 -0.04 -0.32 c-0.04 -0.56 -0.12 -1.12 -0.24 -1.68 s-0.24 -1.12 -0.24 -1.72 c0 -0.28 -0.12 -0.56 -0.24 -0.84 c-0.08 -0.16 -0.2 -0.28 -0.28 -0.44 c-0.08 -0.2 -0.24 -0.32 -0.44 -0.4 c-0.08 -0.08 -0.2 -0.12 -0.28 -0.16 c-0.6 -0.2 -1.12 -0.16 -1.6 0.24 c-0.28 0.24 -0.52 0.48 -0.76 0.76 c-0.16 0.12 -0.24 0.32 -0.28 0.52 c-0.08 0.4 -0.16 0.84 -0.24 1.24 l0 0.2 c0 0.2 -0.04 0.4 0 0.6 c0 0.24 -0.16 0.44 -0.2 0.68 l0 0.04 c-0.04 0.52 -0.12 1.04 -0.16 1.56 c-0.04 0.36 -0.04 0.76 0.04 1.12 c0.04 0.12 0.04 0.24 0.04 0.36 c0 1.56 -0.04 3.16 0.04 4.6 z M35.092 36.04 c0.08 -0.12 0.2 -0.24 0.28 -0.32 c0.16 -0.2 0.24 -0.4 0.28 -0.6 c0.04 -0.84 0.08 -1.64 0.08 -2.44 s0 -1.56 0.04 -2.36 c0 -0.44 0.08 -0.88 0.12 -1.32 c0 -0.12 0 -0.24 0.04 -0.36 c0.28 -0.96 0.32 -0.92 1.32 -1.12 l0.36 0 c0.2 0.04 0.44 0.08 0.64 0.08 s0.4 -0.04 0.56 -0.08 c0.12 0 0.28 0.08 0.32 0.2 c0.16 0.52 0.32 1 0.28 1.56 c-0.04 0.36 0 0.76 0 1.12 c0 1.16 -0.08 2.28 -0.2 3.44 c-0.04 0.16 -0.08 0.36 -0.08 0.52 c0 0.72 -0.2 1.4 -0.4 2.08 l-0.24 0.84 c-0.24 0.2 -0.44 0.4 -0.64 0.6 c-0.2 0.16 -0.36 0.36 -0.52 0.56 c-0.12 0.16 -0.24 0.32 -0.48 0.4 c-0.16 0.04 -0.28 0.2 -0.44 0.28 c-0.2 0.12 -0.44 0.2 -0.68 0.2 c-0.44 -0.04 -0.88 -0.04 -1.32 -0.04 c-0.12 0 -0.2 0 -0.32 -0.04 c-0.4 -0.08 -0.84 -0.12 -1.28 -0.12 c-0.12 0 -0.24 -0.04 -0.36 -0.08 c-0.28 -0.04 -0.52 -0.16 -0.8 -0.2 c-0.24 -0.04 -0.44 -0.08 -0.64 -0.28 c-0.08 -0.08 -0.2 -0.12 -0.32 -0.2 c-0.16 -0.08 -0.36 -0.16 -0.52 -0.2 c-0.16 -0.08 -0.28 -0.16 -0.36 -0.28 c-0.2 -0.32 -0.48 -0.56 -0.72 -0.76 c-0.12 -0.16 -0.12 -0.32 -0.12 -0.44 c-0.04 -0.28 -0.12 -0.52 -0.24 -0.8 c-0.16 -0.36 -0.28 -0.72 -0.4 -1.08 c-0.28 -0.8 -0.44 -1.64 -0.4 -2.52 l0 -4.36 c0 -0.52 -0.04 -1.08 -0.04 -1.6 c0 -0.8 0 -1.56 0.08 -2.36 c0.04 -0.56 0.08 -1.16 -0.04 -1.76 l0 -0.44 c0.08 -0.8 0.08 -1.6 0.2 -2.4 c0.08 -0.36 0.12 -0.72 0.2 -1.08 c0.12 -0.32 0.16 -0.64 0.2 -0.96 c0.04 -0.44 0.12 -0.84 0.24 -1.28 c0.08 -0.36 0.16 -0.72 0.16 -1.08 c0.04 -0.24 0.12 -0.48 0.28 -0.68 c0.16 -0.24 0.32 -0.44 0.4 -0.68 c0.04 -0.08 0.12 -0.16 0.2 -0.24 c0.4 -0.32 0.84 -0.64 1.28 -0.96 c0.08 -0.04 0.16 -0.08 0.2 -0.08 c0.32 0 0.6 -0.12 0.88 -0.12 c0.72 -0.08 1.44 -0.24 2.2 -0.24 c0.44 -0.08 0.88 0.08 1.32 0.08 c0.04 0 0.08 0.04 0.12 0.04 c0.28 0.2 0.6 0.28 0.88 0.4 c0.32 0.2 0.64 0.36 0.84 0.72 c0.08 0.16 0.24 0.28 0.4 0.4 s0.28 0.28 0.32 0.48 c0.04 0.28 0.16 0.52 0.32 0.72 c0.16 0.32 0.28 0.64 0.32 1 c0.04 0.48 0.16 0.96 0.12 1.44 c0 0.12 0.04 0.24 0.08 0.36 l0 0.24 c-0.16 0.48 -0.04 1 -0.08 1.52 c-0.04 0.88 -0.04 1.76 -0.08 2.64 c0 0.56 -0.12 1.12 -0.24 1.68 c-0.04 0.12 -0.08 0.2 -0.12 0.32 c-0.08 0.12 -0.12 0.16 -0.24 0.2 c-0.44 0.08 -0.84 0.16 -1.32 0.08 c-0.36 -0.04 -0.76 -0.04 -1.16 -0.16 c-0.16 -0.08 -0.24 -0.16 -0.28 -0.4 c0 -0.12 0 -0.24 0.04 -0.36 c0 -0.28 0.04 -0.52 0.08 -0.8 c0.12 -0.84 0.2 -1.64 0.2 -2.48 l0 -2.56 c0 -0.72 -0.2 -1.32 -0.56 -1.88 c-0.2 -0.32 -0.52 -0.52 -0.92 -0.52 c-0.52 0 -1.08 0.04 -1.6 0.16 c-0.08 0 -0.2 0.04 -0.28 0.12 c-0.28 0.28 -0.56 0.6 -0.68 1 c-0.12 0.48 -0.28 0.96 -0.24 1.44 c0 0.04 0 0.12 -0.04 0.16 c-0.16 0.68 -0.24 1.36 -0.32 2.04 c-0.04 0.32 -0.12 0.68 -0.12 1 l0 0.68 c-0.04 0.24 -0.08 0.52 0 0.8 l0 0.44 c-0.04 0.32 -0.08 0.68 -0.08 1 c0 0.52 -0.04 1 -0.12 1.48 c-0.04 0.12 -0.04 0.24 0 0.36 c0.08 0.4 0.08 0.84 0 1.24 c0 0.16 0 0.32 0.04 0.52 c0 0.28 0.04 0.56 0.04 0.88 c0 0.36 0 0.72 -0.04 1.08 c0 0.32 0 0.64 -0.04 0.96 l0 0.36 c0.04 0.48 0.04 0.96 0.04 1.4 c0.04 0.64 0.12 1.28 0.4 1.88 c0.12 0.32 0.24 0.68 0.4 1 c0.08 0.24 0.24 0.36 0.44 0.48 c0.44 0.28 0.96 0.36 1.48 0.4 c0.44 0.04 0.92 0.08 1.4 0.04 z M47.658 28.439999999999998 c-0.12 0.12 -0.2 0.32 -0.28 0.48 c-0.16 0.16 -0.32 0.28 -0.56 0.28 s-0.44 0 -0.68 0.04 c-0.04 0.08 -0.08 0.16 -0.08 0.24 l0 0.84 l0 9.04 c0 0.32 -0.04 0.6 -0.04 0.92 c0 0.08 -0.12 0.2 -0.2 0.2 c-0.88 0.16 -1.76 0.24 -2.56 0.2 c-0.24 -0.04 -0.48 -0.12 -0.68 -0.2 c-0.24 -0.28 -0.28 -0.6 -0.28 -0.88 c0 -0.6 -0.04 -1.24 -0.04 -1.84 l0 -9.64 l0 -10.12 c0.04 -0.92 0.08 -1.88 0.08 -2.8 c0.04 -0.96 0.08 -1.88 0.12 -2.84 c0 -0.64 0.08 -1.28 0.16 -1.88 c0 -0.24 0.12 -0.36 0.36 -0.4 c0.2 -0.04 0.36 -0.12 0.56 -0.16 c0.64 -0.2 1.32 -0.12 1.96 0.08 c0.08 0.04 0.16 0.12 0.2 0.24 c0 0.08 0.04 0.16 0.04 0.24 c0.08 0.84 0.16 1.64 0.16 2.48 c0 0.68 0.04 1.36 0.12 2.08 c0.04 0.24 0.04 0.52 0.04 0.8 l0 8.08 c0 0.24 0 0.48 0.04 0.72 c0 0.04 0.04 0.08 0.08 0.12 c0.04 0 0.08 -0.04 0.08 -0.04 c0.08 -0.08 0.16 -0.16 0.2 -0.28 c0.68 -1 1.32 -2.04 1.84 -3.12 c0.24 -0.48 0.44 -0.96 0.6 -1.48 c0.2 -0.44 0.4 -0.88 0.52 -1.4 c0.04 -0.12 0.16 -0.28 0.24 -0.4 c0.48 -0.64 0.84 -1.32 1.4 -1.88 c0.16 -0.2 0.28 -0.48 0.4 -0.72 c0.08 -0.08 0.08 -0.2 0.12 -0.32 c0 -0.12 0 -0.28 0.04 -0.4 c0.12 -0.2 0.24 -0.36 0.4 -0.52 c0.28 -0.24 0.52 -0.52 0.6 -0.88 c0 -0.04 0.04 -0.08 0.08 -0.16 c0.08 -0.12 0.16 -0.2 0.32 -0.2 c0.28 0 0.56 -0.08 0.8 -0.2 c0.08 -0.04 0.16 -0.08 0.2 -0.08 c0.2 0 0.24 0.16 0.36 0.24 c0.2 0.16 0.4 0.32 0.64 0.36 s0.44 0.2 0.64 0.32 c0.16 0.4 0.28 0.8 0.44 1.16 c0.16 0.28 0.08 0.48 -0.08 0.68 c-0.08 0.12 -0.2 0.2 -0.28 0.32 s-0.2 0.2 -0.28 0.32 c-0.12 0.12 -0.2 0.24 -0.24 0.44 c-0.08 0.36 -0.24 0.72 -0.44 1.04 c-0.12 0.16 -0.2 0.32 -0.28 0.52 c-0.12 0.32 -0.32 0.56 -0.6 0.76 c-0.48 0.32 -0.8 0.76 -1.08 1.24 c-0.08 0.24 -0.2 0.44 -0.28 0.68 c-0.4 0.76 -0.76 1.56 -1.12 2.32 c-0.24 0.56 -0.6 1.08 -0.92 1.56 c-0.12 0.16 -0.12 0.32 -0.04 0.48 c0.28 0.72 0.68 1.4 1.08 2.04 c0.64 0.96 1.12 1.96 1.64 3 c0.32 0.64 0.68 1.24 1 1.88 c0.24 0.44 0.48 0.88 0.68 1.32 c0.4 0.84 0.92 1.6 1.6 2.24 c0.2 0.2 0.4 0.44 0.48 0.76 c0.08 0.16 0.2 0.32 0.36 0.44 c0.08 0.08 0.16 0.2 0.2 0.32 c0.16 0.4 0.32 0.72 0.56 1.04 c0.16 0.24 0.2 0.52 0.16 0.8 c0 0.08 -0.04 0.16 -0.08 0.2 c-0.32 0.24 -0.4 0.6 -0.52 0.92 c-0.52 0.24 -1 0.44 -1.52 0.64 c-0.36 0.12 -0.72 0.12 -1.04 -0.08 c-0.24 -0.2 -0.48 -0.4 -0.6 -0.68 c-0.12 -0.36 -0.28 -0.68 -0.48 -0.96 c-0.24 -0.52 -0.56 -0.96 -0.88 -1.4 c-0.68 -0.88 -1.2 -1.8 -1.72 -2.76 c-0.32 -0.68 -0.68 -1.32 -1.04 -1.96 c-0.36 -0.72 -0.72 -1.44 -1.12 -2.16 c-0.24 -0.48 -0.48 -1.04 -0.92 -1.44 c-0.16 -0.16 -0.28 -0.44 -0.4 -0.64 c-0.04 -0.08 -0.08 -0.12 -0.16 -0.2 l-0.08 0 z M72.22399999999999 11.920000000000002 c0 0.04 0.04 0.04 0.04 0.08 c0.16 0.68 0.2 1.4 0.2 2.16 l-0.04 0.04 c-0.12 0.64 -0.08 0.76 -0.8 0.8 c-0.24 0.04 -0.52 0.04 -0.8 0.04 l-6.28 0 c-0.24 0 -0.48 0 -0.72 0.04 c-0.2 0 -0.28 0.08 -0.28 0.24 l0 0.72 s0.04 0.48 0.04 0.72 l0 1.32 c0 0.56 0 1.08 0.08 1.64 l0 0.6 l0 5.12 c0 0.24 -0.04 0.48 0.04 0.76 c0.12 -0.04 0.2 0 0.28 -0.04 c0.92 -0.32 1.84 -0.48 2.76 -0.52 c0.64 -0.08 1.32 -0.12 1.96 -0.24 c0.32 -0.08 0.64 -0.12 1 -0.12 c0.36 -0.04 0.64 -0.08 0.96 -0.28 c0.08 -0.04 0.24 -0.04 0.32 0.08 c0.16 0.2 0.36 0.36 0.6 0.52 c0.36 0.24 0.56 0.88 0.28 1.44 c-0.32 0.6 -0.48 0.84 -1.32 1 c-0.28 0.04 -0.52 0.08 -0.8 0.12 c-0.84 0.12 -1.68 0.24 -2.52 0.32 c-0.12 0.04 -0.28 0.04 -0.4 0.04 c-1.04 0.08 -2 0.36 -2.92 0.8 c-0.16 0.08 -0.24 0.2 -0.24 0.4 l0 1.08 l0 4 c0 0.2 0 0.4 0.04 0.64 c0 0.08 0.04 0.12 0.12 0.16 l0.64 0 l6.32 0 l0.48 0 c0.72 0.04 0.64 -0.04 0.76 0.64 c0.08 0.56 0.08 1.08 0.08 1.6 l0 0.16 c-0.2 0.6 -0.12 0.72 -0.84 0.72 c-1.08 0.04 -2.16 0.04 -3.28 0 l-2.32 0 c-0.96 0 -1.96 0 -2.96 -0.04 c-0.56 -0.04 -1.08 -0.12 -1.64 -0.2 c-0.12 0 -0.2 -0.12 -0.24 -0.24 c-0.32 -0.88 -0.32 -0.88 -0.32 -1.84 c-0.04 -1.08 -0.04 -2.2 -0.04 -3.32 l0 -8.04 c0.04 -2.4 0.08 -4.84 0.08 -7.24 c0 -0.8 0.08 -1.6 0.08 -2.4 c0 -0.16 0.04 -0.36 -0.12 -0.52 c-0.08 -0.32 -0.2 -0.6 -0.28 -0.88 c-0.08 -0.64 -0.12 -1.28 0.08 -1.88 c0.08 -0.16 0.16 -0.24 0.32 -0.24 l0.52 0 l10.44 0 c0.2 0 0.44 -0.04 0.64 0.04 z M82.18999999999998 26.4 c0.04 -2.96 0.04 -5.92 0.04 -8.88 c0 -0.52 0.04 -1.08 0.08 -1.6 c0 -0.28 -0.04 -0.56 -0.04 -0.8 c0 -0.04 -0.04 -0.08 -0.08 -0.08 c-0.16 -0.04 -0.32 -0.04 -0.44 -0.04 l-4.44 0 l-0.72 0 c-0.12 0 -0.24 -0.04 -0.32 -0.08 c-0.08 0 -0.16 -0.08 -0.2 -0.16 c0 -0.16 -0.04 -0.28 -0.08 -0.44 c-0.24 -0.68 -0.24 -1.36 -0.16 -2.08 c0.04 -0.16 0.12 -0.32 0.16 -0.48 c0.04 -0.08 0.12 -0.16 0.2 -0.16 c0.08 -0.04 0.16 -0.04 0.24 -0.04 l0.52 0 l12.6 0 l1 0 c0.12 0 0.2 0 0.32 0.04 c0.12 0 0.2 0.04 0.24 0.16 c0.2 0.96 0.28 1.92 0.04 2.84 c-0.08 0.2 -0.2 0.32 -0.36 0.36 c-0.24 0 -0.44 0.04 -0.64 0.04 l-3.88 0 l-0.6 0 c-0.08 0.04 -0.16 0.12 -0.16 0.2 l0 0.24 c0.08 0.4 0.04 0.8 0.04 1.16 l0 19.08 c0 0.4 -0.04 0.8 -0.04 1.2 l0 1.08 l0 0.68 c-0.04 0.12 -0.12 0.24 -0.24 0.28 c-0.6 0.08 -1.2 0.16 -1.84 0.16 c-0.28 -0.04 -0.56 -0.08 -0.8 -0.16 c-0.16 -0.04 -0.24 -0.16 -0.24 -0.32 c-0.04 -0.44 -0.08 -0.88 -0.08 -1.36 c-0.08 -1.48 -0.08 -2.96 -0.08 -4.44 l0 -2.68 l0 -2 l0 -1.72 l-0.04 0 z M96.076 14.559999999999999 c-1.08 -0.2 -2.2 -0.2 -3.32 -0.16 c-0.44 0.04 -0.56 -0.04 -0.76 -0.44 c-0.2 -0.44 -0.24 -0.92 -0.24 -1.44 c0 -0.56 0.08 -0.68 0.72 -0.92 c0.36 -0.16 0.72 -0.16 1.12 -0.2 c0.84 -0.04 1.68 0 2.52 0.04 l1.24 0 c0.56 -0.04 1.16 -0.04 1.72 -0.04 c0.08 0 0.2 0 0.28 0.04 c0.28 0.12 0.52 0.12 0.8 0.12 l2.16 0 c0.16 0 0.36 -0.04 0.52 0.04 c0 0.04 0.04 0.08 0.08 0.12 c0.04 0.44 0.12 0.84 0.16 1.28 c0 0.2 -0.04 0.4 0 0.56 c0 0.28 -0.08 0.56 -0.16 0.8 c-0.04 0.16 -0.16 0.28 -0.32 0.28 c-0.4 0.04 -0.84 0.04 -1.24 0.04 l-1.64 0 c-0.24 0 -0.36 0.12 -0.36 0.36 l0 0.6 c0 0.4 0.04 0.84 0.04 1.24 l0 6.64 c0 1.56 0.04 3.16 0 4.72 l0 6.76 c0 0.24 0 0.44 0.04 0.68 c0 0.04 0.04 0.08 0.08 0.08 c0.12 0.04 0.24 0.08 0.36 0.08 c0.56 0 1.12 0.16 1.68 0.04 l1.56 0.12 c0.08 0.04 0.16 0.04 0.24 0.04 l0.36 0.24 c0.08 0.08 0.12 0.2 0.16 0.32 c0.16 0.44 0.12 0.88 0.04 1.32 c0 0.04 -0.04 0.08 -0.04 0.12 c-0.2 0.76 -0.28 0.76 -0.96 0.68 c-0.04 0 -0.12 -0.04 -0.16 -0.04 c-0.64 0 -1.28 -0.04 -1.92 -0.08 c-0.44 0 -0.84 0.04 -1.24 0.08 c-0.24 0.04 -0.48 0.04 -0.64 0.24 c-0.4 0.12 -0.8 0.24 -1.2 0.28 c-0.36 0.04 -0.68 -0.12 -1 -0.28 c-0.08 -0.04 -0.16 -0.12 -0.24 -0.16 c-0.12 -0.04 -0.24 -0.08 -0.36 -0.08 c-0.2 0 -0.4 0.04 -0.6 0 c-0.2 0 -0.44 0 -0.64 0.08 c-0.16 0.08 -0.32 0.12 -0.52 0.12 c-0.24 0 -0.52 0.04 -0.8 0.12 c-0.48 0.12 -0.96 0.04 -1.44 -0.12 c-0.16 -0.12 -0.32 -0.28 -0.44 -0.4 c-0.04 -0.04 -0.04 -0.08 -0.04 -0.12 c0 -0.2 0.04 -0.36 0.04 -0.52 c0.04 -0.24 0.08 -0.48 0.04 -0.76 c-0.04 -0.2 0 -0.44 0.08 -0.64 c0.04 -0.24 0.24 -0.44 0.52 -0.48 c0.48 -0.04 1 -0.08 1.48 -0.12 l0.72 -0.12 s0.48 -0.08 0.72 0 c0.2 0.04 0.4 0 0.6 -0.04 c0.32 -0.04 0.36 -0.08 0.36 -0.44 l0 -1.76 c-0.04 -0.92 -0.04 -1.8 -0.04 -2.68 l0 -6.68 c0.04 -1.96 0.04 -3.92 0.08 -5.88 c0 -0.96 0 -1.92 0.08 -2.88 l0 -0.24 c0.04 -0.24 -0.08 -0.4 -0.28 -0.56 z M106.32199999999999 14.84 c-0.16 -0.68 -0.2 -1.4 -0.16 -2.12 l0.12 -0.48 c0.04 -0.12 0.12 -0.2 0.24 -0.24 l1.32 -0.12 c0.08 0 0.12 0 0.2 -0.04 c0.96 -0.16 1.88 -0.16 2.84 -0.16 l7.64 0 c0.56 0 1.16 0.08 1.72 0.16 c0.08 0 0.16 0.08 0.16 0.12 c0.12 0.72 0.2 1.44 0.16 2.16 c0 0.24 -0.08 0.44 -0.16 0.64 c-0.08 0.08 -0.16 0.16 -0.24 0.16 c-0.36 0 -0.72 0.04 -1.08 0.04 l-6.32 0 l-0.8 0 c-0.2 0 -0.32 0.12 -0.32 0.32 s-0.04 0.36 0 0.52 c0.08 0.44 0.04 0.88 0.04 1.32 l0 1.36 c0 0.4 0 0.8 0.04 1.16 c0.04 0.16 0.04 0.36 0.04 0.52 l0 3.44 c0 0.28 -0.04 0.56 -0.04 0.84 c-0.04 0.12 0 0.24 0 0.36 c0 0.08 0.08 0.16 0.16 0.12 c0.24 0 0.48 -0.04 0.72 -0.08 c0.56 -0.12 1.12 -0.12 1.72 -0.08 c0.4 0 0.76 -0.08 1.12 -0.24 c0.16 -0.08 0.32 -0.2 0.48 -0.28 c0.32 -0.2 0.6 -0.2 0.92 -0.08 l0.24 0.36 c0.32 0.28 0.44 0.68 0.56 1.08 c0.08 0.2 0.16 0.44 0.24 0.68 c0.04 0.16 0.04 0.32 0.08 0.48 c0 0.08 -0.04 0.12 -0.04 0.16 c-0.16 0.16 -0.28 0.32 -0.44 0.48 c-0.04 0 -0.08 0.04 -0.16 0.04 c-0.24 0.04 -0.44 0.16 -0.64 0.32 s-0.44 0.24 -0.72 0.32 c-0.16 0 -0.32 0.04 -0.48 0.12 c-0.28 0.16 -0.56 0.16 -0.84 0.12 c-0.12 -0.04 -0.24 -0.04 -0.36 -0.08 c-0.72 -0.24 -1.4 -0.12 -2.04 0.12 c-0.08 0.04 -0.16 0.08 -0.2 0.16 c-0.08 0.12 -0.12 0.24 -0.24 0.32 c-0.04 0.04 -0.08 0.16 -0.08 0.2 l0 0.88 l0 4.88 c0 0.44 0.04 0.92 0.08 1.36 c0.04 0.56 0.04 1.12 0 1.72 c-0.08 0.08 -0.24 0.16 -0.32 0.28 s-0.12 0.28 -0.16 0.4 c-0.36 0.2 -0.8 0.24 -1.16 0.36 c-0.36 0.08 -0.68 -0.08 -1 -0.24 c-0.08 -0.04 -0.16 -0.12 -0.2 -0.16 c-0.24 -0.2 -0.36 -0.4 -0.36 -0.68 l0 -0.68 c-0.04 -1.36 0 -2.72 -0.04 -4.08 c-0.04 -1.28 0 -2.56 0 -3.84 l0 -5 c0 -1.96 0.04 -3.88 0.08 -5.84 c0 -1.04 0.04 -2.12 0.08 -3.2 c0 -0.12 -0.08 -0.24 -0.2 -0.24 l-0.52 0 l-1.32 0 c-0.12 0 -0.24 0 -0.36 -0.12 z M130.688 34.28 c0 -1.44 -0.04 -2.88 0 -4.28 c0 -0.4 -0.04 -0.8 -0.2 -1.16 c-0.04 -0.12 -0.08 -0.28 -0.08 -0.44 c-0.08 -0.68 -0.28 -1.28 -0.44 -1.92 c-0.04 -0.16 -0.12 -0.32 -0.16 -0.44 c-0.2 -0.36 -0.36 -0.72 -0.52 -1.04 c-0.44 -0.88 -0.76 -1.76 -1.04 -2.68 c-0.2 -0.76 -0.48 -1.48 -0.84 -2.16 c-0.4 -0.84 -0.72 -1.76 -0.96 -2.68 c-0.08 -0.4 -0.2 -0.76 -0.36 -1.12 c-0.2 -0.48 -0.36 -0.96 -0.52 -1.44 c-0.08 -0.16 -0.12 -0.32 -0.28 -0.4 s-0.24 -0.2 -0.24 -0.36 c-0.04 -0.12 -0.04 -0.24 -0.04 -0.36 c0 -0.36 -0.04 -0.68 -0.2 -1 c-0.04 -0.12 -0.04 -0.28 0.04 -0.4 c0.08 -0.16 0.12 -0.32 0.12 -0.52 c0 -0.12 0 -0.28 0.04 -0.4 c0 -0.2 0.08 -0.28 0.28 -0.32 c0.12 -0.04 0.24 -0.04 0.4 -0.12 c0.16 -0.04 0.32 -0.08 0.52 -0.08 l1.08 0 c0.04 0 0.04 -0.04 0.08 -0.04 c0.64 0.08 0.72 0.16 0.8 0.72 c0.04 0.24 0.04 0.48 0.04 0.76 c0 0.2 0.04 0.4 0.12 0.6 c0.2 0.52 0.36 1.12 0.64 1.64 c0.08 0.16 0.12 0.32 0.16 0.52 c0.12 0.28 0.2 0.6 0.32 0.88 c0.12 0.32 0.24 0.6 0.28 0.92 c0.04 0.52 0.24 1 0.48 1.48 c0.48 0.84 0.8 1.76 1.12 2.72 c0.04 0.2 0.08 0.4 0.16 0.6 c0.12 0.56 0.32 1.08 0.56 1.56 c0.04 0.08 0.04 0.08 0.08 0.12 c0.04 0.08 0.12 0.04 0.16 0 c0.28 -0.4 0.44 -0.88 0.56 -1.36 c0.08 -0.16 0.08 -0.32 0.12 -0.48 c0.12 -0.4 0.2 -0.8 0.4 -1.16 c0.04 -0.08 0.04 -0.16 0.08 -0.28 c0.16 -0.56 0.4 -1.08 0.68 -1.6 c0.32 -0.56 0.52 -1.12 0.6 -1.72 c0.04 -0.28 0.12 -0.56 0.24 -0.8 l0.12 -0.24 c0.2 -0.8 0.56 -1.52 0.84 -2.32 c0.16 -0.44 0.32 -0.88 0.28 -1.36 c0 -0.2 0.04 -0.44 0.08 -0.64 c0.04 -0.36 0.2 -0.48 0.56 -0.52 l0.28 0 l0.96 0 c0.24 0 0.48 0.04 0.72 0.12 c0.6 0.16 0.6 0.08 0.64 0.76 c0 0.12 0 0.28 0.04 0.4 c0.24 0.24 0.12 0.48 0.04 0.76 c-0.08 0.2 -0.12 0.4 -0.12 0.6 l0 0.4 c0 0.24 -0.08 0.44 -0.32 0.56 c-0.12 0.08 -0.16 0.16 -0.2 0.28 c-0.16 0.52 -0.36 1.04 -0.56 1.52 c-0.16 0.4 -0.28 0.76 -0.4 1.16 c-0.2 0.96 -0.56 1.84 -0.96 2.68 c-0.32 0.68 -0.6 1.36 -0.76 2.04 c-0.36 1.16 -0.8 2.28 -1.36 3.36 c-0.24 0.44 -0.44 0.92 -0.56 1.44 c-0.12 0.6 -0.2 1.2 -0.36 1.8 c-0.04 0.24 -0.04 0.48 -0.04 0.68 l0 2.12 l0 7.24 c0 0.64 0.04 0.6 -0.6 0.72 c-0.56 0.08 -1.16 0.08 -1.72 0.08 c-0.2 0 -0.4 -0.08 -0.6 -0.12 c-0.12 -0.04 -0.24 -0.16 -0.24 -0.28 c-0.04 -0.16 -0.04 -0.32 -0.04 -0.48 c0 -1.32 0 -2.6 -0.04 -3.92 l0 -0.6 l0.04 0 z"></path></g></svg>